<?xml version="1.0" encoding="utf-8"?>
<!-- Generator: Adobe Illustrator 27.1.1, SVG Export Plug-In . SVG Version: 6.00 Build 0)  -->
<svg version="1.1" id="Layer_1" xmlns="http://www.w3.org/2000/svg" xmlns:xlink="http://www.w3.org/1999/xlink" x="0px" y="0px"
	 viewBox="0 0 512 512" style="enable-background:new 0 0 512 512;" xml:space="preserve">
<style type="text/css">
	.st0{fill:#FF2CD2;}
	.st1{fill:#5E00FF;}
	.st2{fill:#FFDE2B;}
	.st3{fill:#FF6700;}
</style>
<g id="Artboard">
	<g id="PlutoTV_Logo_Hero_RGB_Color">
		<path id="Shape" d="M326.75,213.07c-23.71,0-42.93,19.22-42.93,42.93s19.22,42.93,42.93,42.93c23.71,0,42.93-19.22,42.93-42.93
			S350.46,213.07,326.75,213.07L326.75,213.07z M326.75,275.72c-10.89,0-19.72-8.83-19.72-19.72c0-10.89,8.83-19.72,19.72-19.72
			c10.89,0,19.72,8.83,19.72,19.72c0,5.23-2.08,10.25-5.78,13.94C336.99,273.64,331.98,275.72,326.75,275.72L326.75,275.72z
			 M257.92,236.81v26.59c0,8.15,3.63,11.79,11.79,11.79h8.21v22.12h-11.95c-9.94,0-18.12-2.92-23.66-8.43s-8.46-13.65-8.46-23.52
			v-28.54h-14.81v-22.12h14.81v-11.95l24.07-9.73v21.68h20v22.12H257.92z M209.61,214.7v45.2c0.05,13.98-7.38,26.91-19.48,33.91
			s-27.01,7-39.11,0c-12.1-7-19.52-19.94-19.48-33.91v-34.64l23.91-9.66v45c0,8.35,6.77,15.12,15.12,15.12
			c8.35,0,15.12-6.77,15.12-15.12v-36.23L209.61,214.7z M121.2,193.01v104.29H97.12v-94.57L121.2,193.01z M47.72,213.07
			c-10.06,0-18.59,3.4-24.93,9.88l-3.33-8.04L0,222.78v96.21h24.07v-28.41c6.26,5.65,14.37,8.35,23.66,8.35
			c10.88,0.05,21.27-4.52,28.58-12.58c7.31-7.98,11.34-18.73,11.34-30.26C87.64,231.97,70.11,213.07,47.72,213.07z M44.04,275.72
			c-11.06,0-20.03-8.83-20.03-19.72s8.97-19.72,20.03-19.72s20.03,8.83,20.03,19.72S55.11,275.72,44.04,275.72z"/>
		<path id="Path" class="st0" d="M431.51,256c0-33.74,3.17-42.23,3.17-42.23l-10.02,0.2c-23.71,0.48-42.93,18.31-42.93,42.03
			s19.22,41.54,42.93,42.03l10.02,0.2C434.68,298.23,431.51,289.73,431.51,256"/>
		<path id="path8" class="st1" d="M431.51,256c0-27,14.63-42.46,14.63-42.46l-11.46,0.23c-23.71,0.48-42.93,18.52-42.93,42.23
			s19.22,41.75,42.93,42.23l11.46,0.23C446.15,298.46,431.51,283,431.51,256"/>
		<path id="path10" class="st2" d="M431.51,256c0-30.48,26.09-42.7,26.09-42.7l-11.46,0.23c-23.71,0.48-42.93,18.75-42.93,42.46
			s19.22,41.98,42.93,42.46l11.46,0.24C457.61,298.7,431.51,286.48,431.51,256"/>
		<path id="path12" class="st3" d="M431.51,256c0-19.86,12.93-40.5,35.93-42.9l-9.84,0.2c-23.71,0.48-42.93,18.99-42.93,42.7
			s19.22,42.21,42.93,42.7l9.87,0.2C444.48,296.51,431.51,275.86,431.51,256"/>
		<path id="path14" d="M469.07,213.07c-23.71,0-42.93,19.22-42.93,42.93s19.22,42.93,42.93,42.93c23.71,0,42.93-19.22,42.93-42.93
			S492.78,213.07,469.07,213.07L469.07,213.07z M486.02,276.97h-8l-11.46-27.71h-11.49v14.3c0,3.08,1.49,4.99,4.99,4.99h5.08v8.42
			h-6.25c-8.47,0-13.01-4.79-13.01-12.81v-14.91h-6.34v-8.06h6.34v-5.73l9.19-3.71v9.44h18.09l8.86,23.15l8.95-23.37h9.94
			L486.02,276.97z"/>
	</g>
</g>
</svg>
